<svg width="153" height="25" viewBox="0 0 153 25" fill="none" xmlns="http://www.w3.org/2000/svg">
<path d="M6.2 19.25C5.16667 19.25 4.21667 18.9917 3.35 18.475C2.48333 17.9583 1.79167 17.2167 1.275 16.25C0.758333 15.2667 0.5 14.1 0.5 12.75C0.5 11.3667 0.775 10.1917 1.325 9.225C1.875 8.25833 2.6 7.525 3.5 7.025C4.4 6.50833 5.36667 6.25 6.4 6.25C7.43333 6.25 8.325 6.51667 9.075 7.05C9.84167 7.58333 10.35 8.29167 10.6 9.175L10.35 9.35V0.75H12.35V19H10.6L10.425 15.975L10.7 15.825C10.5833 16.5583 10.3 17.1833 9.85 17.7C9.41667 18.2 8.875 18.5833 8.225 18.85C7.59167 19.1167 6.91667 19.25 6.2 19.25ZM6.4 17.5C7.2 17.5 7.89167 17.3 8.475 16.9C9.075 16.5 9.53333 15.9333 9.85 15.2C10.1833 14.45 10.35 13.575 10.35 12.575C10.35 11.625 10.1833 10.8083 9.85 10.125C9.53333 9.44167 9.08333 8.91667 8.5 8.55C7.93333 8.18333 7.26667 8 6.5 8C5.23333 8 4.25 8.43333 3.55 9.3C2.85 10.1667 2.5 11.3167 2.5 12.75C2.5 14.1833 2.84167 15.3333 3.525 16.2C4.20833 17.0667 5.16667 17.5 6.4 17.5ZM17.9988 4.1C17.5488 4.1 17.1822 3.96667 16.8988 3.7C16.6322 3.41667 16.4988 3.05 16.4988 2.6C16.4988 2.15 16.6322 1.79167 16.8988 1.525C17.1822 1.24167 17.5488 1.1 17.9988 1.1C18.4488 1.1 18.8072 1.24167 19.0738 1.525C19.3572 1.79167 19.4988 2.15 19.4988 2.6C19.4988 3.05 19.3572 3.41667 19.0738 3.7C18.8072 3.96667 18.4488 4.1 17.9988 4.1ZM18.9988 6.5V19H16.9988V6.5H18.9988ZM34.1645 4.2L34.6145 5.975C34.5978 5.975 34.5728 5.975 34.5395 5.975C34.5061 5.975 34.4728 5.975 34.4395 5.975C33.6228 5.975 32.9895 6.14167 32.5395 6.475C32.1061 6.79167 31.8895 7.30833 31.8895 8.025L30.6645 7.4C30.6645 6.75 30.8145 6.18333 31.1145 5.7C31.4145 5.21667 31.8228 4.85 32.3395 4.6C32.8561 4.33333 33.4228 4.2 34.0395 4.2C34.0561 4.2 34.0728 4.2 34.0895 4.2C34.1228 4.2 34.1478 4.2 34.1645 4.2ZM30.3645 17.4C31.5478 17.4 32.4728 17.675 33.1395 18.225C33.8061 18.7583 34.1395 19.475 34.1395 20.375C34.1395 21.1917 33.8645 21.9 33.3145 22.5C32.7811 23.1 32.0561 23.5583 31.1395 23.875C30.2395 24.2083 29.2228 24.375 28.0895 24.375C26.1228 24.375 24.6478 24.0417 23.6645 23.375C22.6978 22.7083 22.2145 21.9083 22.2145 20.975C22.2145 20.3083 22.4311 19.7083 22.8645 19.175C23.3145 18.6583 24.0645 18.3667 25.1145 18.3L24.9395 18.675C24.3728 18.525 23.8895 18.275 23.4895 17.925C23.1061 17.5583 22.9145 17.0333 22.9145 16.35C22.9145 15.6667 23.1645 15.0833 23.6645 14.6C24.1811 14.1 24.9395 13.7917 25.9395 13.675L27.2645 14.35H27.0145C26.1978 14.4333 25.6145 14.6417 25.2645 14.975C24.9311 15.2917 24.7645 15.6417 24.7645 16.025C24.7645 16.4917 24.9311 16.8417 25.2645 17.075C25.6145 17.2917 26.0978 17.4 26.7145 17.4H30.3645ZM28.0645 22.7C29.0311 22.7 29.8228 22.6 30.4395 22.4C31.0728 22.2 31.5395 21.9417 31.8395 21.625C32.1395 21.3083 32.2895 20.9667 32.2895 20.6C32.2895 20.15 32.1061 19.7917 31.7395 19.525C31.3895 19.2583 30.7478 19.125 29.8145 19.125H25.9645C25.4311 19.125 24.9811 19.2583 24.6145 19.525C24.2478 19.8083 24.0645 20.1917 24.0645 20.675C24.0645 21.2917 24.4145 21.7833 25.1145 22.15C25.8311 22.5167 26.8145 22.7 28.0645 22.7ZM27.8895 6.25C28.8895 6.25 29.7728 6.43333 30.5395 6.8C31.3228 7.15 31.9311 7.64167 32.3645 8.275C32.7978 8.90833 33.0145 9.64167 33.0145 10.475C33.0145 11.2917 32.7978 12.025 32.3645 12.675C31.9311 13.3083 31.3228 13.8083 30.5395 14.175C29.7728 14.525 28.8895 14.7 27.8895 14.7C26.2395 14.7 24.9728 14.3083 24.0895 13.525C23.2061 12.725 22.7645 11.7083 22.7645 10.475C22.7645 9.64167 22.9811 8.90833 23.4145 8.275C23.8645 7.64167 24.4728 7.15 25.2395 6.8C26.0061 6.43333 26.8895 6.25 27.8895 6.25ZM27.8895 7.875C27.0228 7.875 26.2978 8.11667 25.7145 8.6C25.1311 9.06667 24.8395 9.69167 24.8395 10.475C24.8395 11.2417 25.1311 11.8667 25.7145 12.35C26.2978 12.8333 27.0228 13.075 27.8895 13.075C28.7561 13.075 29.4811 12.8333 30.0645 12.35C30.6478 11.8667 30.9395 11.2417 30.9395 10.475C30.9395 9.69167 30.6478 9.06667 30.0645 8.6C29.4811 8.11667 28.7561 7.875 27.8895 7.875ZM37.9451 4.1C37.4951 4.1 37.1285 3.96667 36.8451 3.7C36.5785 3.41667 36.4451 3.05 36.4451 2.6C36.4451 2.15 36.5785 1.79167 36.8451 1.525C37.1285 1.24167 37.4951 1.1 37.9451 1.1C38.3951 1.1 38.7535 1.24167 39.0201 1.525C39.3035 1.79167 39.4451 2.15 39.4451 2.6C39.4451 3.05 39.3035 3.41667 39.0201 3.7C38.7535 3.96667 38.3951 4.1 37.9451 4.1ZM38.9451 6.5V19H36.9451V6.5H38.9451ZM46.5357 2.95V15.55C46.5357 16.1667 46.7107 16.625 47.0607 16.925C47.4107 17.225 47.8607 17.375 48.4107 17.375C48.8941 17.375 49.3107 17.2917 49.6607 17.125C50.0107 16.9583 50.3274 16.7333 50.6107 16.45L51.3107 18.125C50.9274 18.475 50.4691 18.75 49.9357 18.95C49.4191 19.15 48.8191 19.25 48.1357 19.25C47.5024 19.25 46.9107 19.1417 46.3607 18.925C45.8107 18.6917 45.3691 18.3333 45.0357 17.85C44.7191 17.35 44.5524 16.7 44.5357 15.9V3.5L46.5357 2.95ZM51.0857 6.5V8.225H42.0357V6.5H51.0857ZM61.3594 10.925C61.3594 9.99167 61.1094 9.275 60.6094 8.775C60.1094 8.25833 59.401 8 58.4844 8C57.6177 8 56.8844 8.19167 56.2844 8.575C55.6844 8.94167 55.2427 9.54167 54.9594 10.375L53.3344 9.375C53.6677 8.44167 54.2844 7.69167 55.1844 7.125C56.0844 6.54167 57.201 6.25 58.5344 6.25C59.4344 6.25 60.251 6.40833 60.9844 6.725C61.7177 7.025 62.2927 7.49167 62.7094 8.125C63.1427 8.74167 63.3594 9.54167 63.3594 10.525V16.575C63.3594 17.175 63.676 17.475 64.3094 17.475C64.626 17.475 64.9344 17.4333 65.2344 17.35L65.1344 18.925C64.801 19.0917 64.3677 19.175 63.8344 19.175C63.351 19.175 62.9177 19.0833 62.5344 18.9C62.151 18.7167 61.851 18.4417 61.6344 18.075C61.4177 17.6917 61.3094 17.2167 61.3094 16.65V16.4L61.8094 16.475C61.6094 17.125 61.2677 17.6583 60.7844 18.075C60.301 18.475 59.7594 18.775 59.1594 18.975C58.5594 19.1583 57.9677 19.25 57.3844 19.25C56.651 19.25 55.9677 19.125 55.3344 18.875C54.701 18.625 54.1927 18.25 53.8094 17.75C53.4427 17.2333 53.2594 16.6 53.2594 15.85C53.2594 14.9167 53.5677 14.15 54.1844 13.55C54.8177 12.9333 55.6927 12.5167 56.8094 12.3L61.7594 11.325V12.975L57.7344 13.8C56.9177 13.9667 56.3094 14.2 55.9094 14.5C55.5094 14.8 55.3094 15.2167 55.3094 15.75C55.3094 16.2667 55.5094 16.6917 55.9094 17.025C56.326 17.3417 56.9094 17.5 57.6594 17.5C58.1427 17.5 58.601 17.4417 59.0344 17.325C59.4844 17.1917 59.8844 17 60.2344 16.75C60.5844 16.4833 60.8594 16.1583 61.0594 15.775C61.2594 15.375 61.3594 14.9083 61.3594 14.375V10.925Z" fill="#505050"/>
<path d="M71.4945 16.225H80.1945V19H68.0445V2.5H71.4945V16.225ZM84.4342 4.7C83.7175 4.7 83.1842 4.55 82.8342 4.25C82.4842 3.93333 82.3092 3.475 82.3092 2.875C82.3092 2.25833 82.4842 1.8 82.8342 1.5C83.1842 1.18333 83.7175 1.025 84.4342 1.025C85.1508 1.025 85.6842 1.18333 86.0342 1.5C86.3842 1.8 86.5592 2.25833 86.5592 2.875C86.5592 3.475 86.3842 3.93333 86.0342 4.25C85.6842 4.55 85.1508 4.7 84.4342 4.7ZM86.1342 6.5V19H82.7092V6.5H86.1342ZM97.1148 19.25C96.3482 19.25 95.6482 19.0917 95.0148 18.775C94.3982 18.4417 93.8815 17.9917 93.4648 17.425C93.0648 16.8417 92.7898 16.1917 92.6398 15.475L92.9898 15.025L92.7898 19H89.7648V1.025H93.1898V10.025L92.8648 9.5C93.1315 8.56667 93.6398 7.79167 94.3898 7.175C95.1398 6.55833 96.0815 6.25 97.2148 6.25C98.1982 6.25 99.0898 6.50833 99.8898 7.025C100.69 7.54167 101.315 8.28333 101.765 9.25C102.232 10.2167 102.465 11.3917 102.465 12.775C102.465 14.125 102.232 15.2833 101.765 16.25C101.315 17.2167 100.682 17.9583 99.8648 18.475C99.0648 18.9917 98.1482 19.25 97.1148 19.25ZM96.0898 16.625C97.0065 16.625 97.7232 16.3 98.2398 15.65C98.7732 14.9833 99.0398 14.0167 99.0398 12.75C99.0398 11.4833 98.7815 10.525 98.2648 9.875C97.7482 9.20833 97.0315 8.875 96.1148 8.875C95.5148 8.875 94.9982 9.03333 94.5648 9.35C94.1315 9.66667 93.7898 10.1167 93.5398 10.7C93.3065 11.2833 93.1898 11.975 93.1898 12.775C93.1898 13.5917 93.3065 14.2917 93.5398 14.875C93.7898 15.4417 94.1315 15.875 94.5648 16.175C95.0148 16.475 95.5232 16.625 96.0898 16.625ZM105.439 19V6.5H108.414L108.639 8.95C108.972 8.08333 109.455 7.41667 110.089 6.95C110.739 6.48333 111.547 6.25 112.514 6.25C112.797 6.25 113.055 6.275 113.289 6.325C113.522 6.375 113.714 6.44167 113.864 6.525L113.464 9.4C113.297 9.33333 113.089 9.28333 112.839 9.25C112.605 9.21667 112.297 9.2 111.914 9.2C111.414 9.2 110.93 9.325 110.464 9.575C109.997 9.80833 109.614 10.175 109.314 10.675C109.014 11.1583 108.864 11.775 108.864 12.525V19H105.439ZM122.891 11.025C122.891 10.3083 122.682 9.75 122.266 9.35C121.866 8.95 121.332 8.75 120.666 8.75C120.049 8.75 119.507 8.90833 119.041 9.225C118.574 9.54167 118.232 10.0667 118.016 10.8L115.091 9.9C115.374 8.8 115.991 7.91667 116.941 7.25C117.907 6.58333 119.199 6.25 120.816 6.25C121.916 6.25 122.874 6.425 123.691 6.775C124.507 7.10833 125.141 7.61667 125.591 8.3C126.057 8.98333 126.291 9.84167 126.291 10.875V15.95C126.291 16.5833 126.591 16.9 127.191 16.9C127.474 16.9 127.741 16.8583 127.991 16.775L127.791 18.9C127.357 19.1167 126.816 19.225 126.166 19.225C125.582 19.225 125.057 19.125 124.591 18.925C124.124 18.725 123.757 18.425 123.491 18.025C123.224 17.6083 123.091 17.0917 123.091 16.475V16.375L123.691 16.275C123.591 16.9083 123.316 17.45 122.866 17.9C122.416 18.3333 121.866 18.6667 121.216 18.9C120.582 19.1333 119.924 19.25 119.241 19.25C118.391 19.25 117.657 19.125 117.041 18.875C116.424 18.6083 115.949 18.225 115.616 17.725C115.282 17.225 115.116 16.6083 115.116 15.875C115.116 14.9417 115.416 14.1833 116.016 13.6C116.616 13 117.474 12.5917 118.591 12.375L123.291 11.425L123.266 13.55L120.266 14.15C119.699 14.2667 119.266 14.425 118.966 14.625C118.682 14.8083 118.541 15.1167 118.541 15.55C118.541 15.9667 118.691 16.2833 118.991 16.5C119.307 16.7167 119.682 16.825 120.116 16.825C120.466 16.825 120.807 16.7833 121.141 16.7C121.474 16.6167 121.774 16.4833 122.041 16.3C122.307 16.1167 122.516 15.8667 122.666 15.55C122.816 15.2333 122.891 14.85 122.891 14.4V11.025ZM130.121 19V6.5H133.096L133.321 8.95C133.655 8.08333 134.138 7.41667 134.771 6.95C135.421 6.48333 136.23 6.25 137.196 6.25C137.48 6.25 137.738 6.275 137.971 6.325C138.205 6.375 138.396 6.44167 138.546 6.525L138.146 9.4C137.98 9.33333 137.771 9.28333 137.521 9.25C137.288 9.21667 136.98 9.2 136.596 9.2C136.096 9.2 135.613 9.325 135.146 9.575C134.68 9.80833 134.296 10.175 133.996 10.675C133.696 11.1583 133.546 11.775 133.546 12.525V19H130.121ZM152.418 6.5L147.368 19.775C146.968 20.9083 146.518 21.8083 146.018 22.475C145.535 23.1417 144.968 23.625 144.318 23.925C143.685 24.225 142.926 24.375 142.043 24.375C141.393 24.375 140.793 24.2917 140.243 24.125C139.71 23.975 139.243 23.775 138.843 23.525L139.568 21.05C139.885 21.3 140.218 21.475 140.568 21.575C140.918 21.6917 141.318 21.75 141.768 21.75C142.235 21.75 142.635 21.65 142.968 21.45C143.318 21.25 143.61 20.85 143.843 20.25L144.268 19.175L142.893 15.925L139.068 6.5H142.868L145.243 14L145.893 16.5L146.668 13.85L148.943 6.5H152.418Z" fill="#198754"/>
</svg>
