<svg width="22" height="22" viewBox="0 0 22 22" fill="none" xmlns="http://www.w3.org/2000/svg">
<path d="M17.3354 10.0244C17.3354 11.9864 16.5625 13.7679 15.3046 15.0811C15.2623 15.1115 15.2219 15.1458 15.1839 15.1839C15.1458 15.2219 15.1115 15.2623 15.0811 15.3046C13.7679 16.5625 11.9864 17.3354 10.0244 17.3354C5.98665 17.3354 2.71341 14.0621 2.71341 10.0244C2.71341 5.98665 5.98665 2.71341 10.0244 2.71341C14.0621 2.71341 17.3354 5.98665 17.3354 10.0244ZM10.0244 19.2988C12.2318 19.2988 14.2591 18.5276 15.8516 17.2399L19.5741 20.9625C19.9575 21.3458 20.5791 21.3458 20.9625 20.9625C21.3458 20.5791 21.3458 19.9575 20.9625 19.5741L17.2399 15.8516C18.5276 14.2591 19.2988 12.2318 19.2988 10.0244C19.2988 4.90229 15.1465 0.75 10.0244 0.75C4.90229 0.75 0.75 4.90229 0.75 10.0244C0.75 15.1465 4.90229 19.2988 10.0244 19.2988Z" fill="white" stroke="white" stroke-width="0.5" stroke-linecap="round"/>
</svg>
